<svg id="Layer_1" data-name="Layer 1" xmlns="http://www.w3.org/2000/svg" viewBox="0 0 144.72 96.01"><defs><style>.cls-1,.cls-5{fill:#00aeef;}.cls-2{fill:#ec008c;}.cls-2,.cls-3,.cls-4,.cls-5{fill-rule:evenodd;}.cls-3,.cls-6{fill:#a25641;}.cls-4{fill:#0095da;}</style></defs><path class="cls-1" d="M312.46,298c.4.22.72.4,1.05.62a13.66,13.66,0,0,1,2.63,2.19,11.78,11.78,0,0,1,3.31,8.32,12.88,12.88,0,0,1-6.73,11.41l-.26.11V298Zm0-8.56V284l.76.32a2.7,2.7,0,0,0,.94.22.89.89,0,0,0,.79-.36l.61-.79a1.37,1.37,0,0,1,1.12-.65,1.17,1.17,0,0,1,1.08.54,3.33,3.33,0,0,1,.36,1.76v9.29a2,2,0,0,1-.44,1.33,1.55,1.55,0,0,1-1.22.54,1.87,1.87,0,0,1-1-.36,4.69,4.69,0,0,1-.4-.54,4.23,4.23,0,0,1-.29-1.11,12.3,12.3,0,0,0-1.08-2.85A13.3,13.3,0,0,0,312.46,289.43Zm-7.88-7v3.28a5,5,0,0,0-2.66,1.47,3.41,3.41,0,0,0-.9,2.45,4,4,0,0,0,.75,2.49,8.15,8.15,0,0,0,2.45,2c.79.43,2.59,1.26,5.36,2.49a29.58,29.58,0,0,1,2.88,1.36v22.65a17.77,17.77,0,0,1-3.45,1.29,14.48,14.48,0,0,1-3.78.54v-3.24a7.73,7.73,0,0,0,3.56-1.62,3.91,3.91,0,0,0,1.08-2.88,4.23,4.23,0,0,0-1.69-3.31,20.18,20.18,0,0,0-4.28-2.34c-2.31-1-3.89-1.73-4.76-2.16a14.36,14.36,0,0,1-1.87-1.11V284.46a15.89,15.89,0,0,1,7.31-2Zm7.88,1.55c-1.15-.47-2-.76-2.73-1a19,19,0,0,0-3-.43v3.13a9.58,9.58,0,0,1,5.11,3c.18.25.39.46.57.72V284Zm-15.19,36.79.76.36a12.12,12.12,0,0,0,5.07,1.33v-3.24a7.52,7.52,0,0,1-3.81-1.94,12,12,0,0,1-2-2.27Zm0-15c-.21-.15-.39-.26-.57-.4a11.79,11.79,0,0,1-5.3-10.08,13.33,13.33,0,0,1,1.34-5.94,11.05,11.05,0,0,1,3.67-4.36c.29-.21.57-.39.86-.57v21.35Zm0,9.21v5.76c-.32-.11-.54-.21-.68-.25a2,2,0,0,0-.76-.14,1.41,1.41,0,0,0-.86.18,6,6,0,0,0-.9.9,1.38,1.38,0,0,1-1.08.64c-1.05,0-1.59-.82-1.59-2.44V309.41a2,2,0,0,1,.47-1.34,1.38,1.38,0,0,1,1.12-.57,1.06,1.06,0,0,1,1,.36,3.44,3.44,0,0,1,.61,1.33,18.32,18.32,0,0,0,1.87,4.54A12.44,12.44,0,0,0,297.27,315Z" transform="translate(-262.64 -252.99)"/><path class="cls-1" d="M396,321.57v-3.92a8.76,8.76,0,0,0,2.24-1.48,9.22,9.22,0,0,0,1.9-2.16,13.74,13.74,0,0,0,1.37-2.91,3,3,0,0,1,.65-1.23,1.22,1.22,0,0,1,.9-.32,1.3,1.3,0,0,1,1.12.43,3.2,3.2,0,0,1,.32,1.66v9.93Zm0-14.5c.11.28.18.57.29.93a3.12,3.12,0,0,0,.58,1.33,1.29,1.29,0,0,0,1,.36c.54,0,.9-.14,1.08-.5a3.79,3.79,0,0,0,.28-1.84V296.63A4,4,0,0,0,399,295a1.24,1.24,0,0,0-1.22-.72,1.34,1.34,0,0,0-1,.4,3.26,3.26,0,0,0-.62,1.51,3.34,3.34,0,0,1-.18.65v10.26Zm0-19.88v-4.1h8.1v10a2.06,2.06,0,0,1-.36,1.3,1.65,1.65,0,0,1-1.94.14,2.42,2.42,0,0,1-.54-1.08,10.78,10.78,0,0,0-3.13-5A7.41,7.41,0,0,0,396,287.19Zm-5.72-4.1v38.48H377a2.41,2.41,0,0,1-1.55-.39,1.23,1.23,0,0,1-.54-1.08,1.46,1.46,0,0,1,1.12-1.51c.61-.22,1-.33,1.08-.36a1,1,0,0,0,.32-.36,2.36,2.36,0,0,0,.33-1.41V288.24a2.38,2.38,0,0,0-.33-1.44.68.68,0,0,0-.32-.33,10.21,10.21,0,0,0-1.08-.39,1.47,1.47,0,0,1-1.12-1.51,1.23,1.23,0,0,1,.54-1.08,2.6,2.6,0,0,1,1.55-.4h13.25Zm5.72,0v4.1a9.75,9.75,0,0,0-3.24-.79v-3.31Zm0,13.72v10.26A6.31,6.31,0,0,0,394.9,305a4.28,4.28,0,0,0-2.3-1.37v-3.28a6.83,6.83,0,0,0,2.41-1.69,4.86,4.86,0,0,0,1-1.83Zm0,20.84v3.92h-3.2v-3a15.7,15.7,0,0,0,3-.79Z" transform="translate(-262.64 -252.99)"/><polygon class="cls-2" points="72.18 68.15 63.47 68.47 73.3 22.39 87.37 48.06 84.42 57.89 77.4 44.53 72.18 68.15"/><polygon class="cls-3" points="101.3 34.85 109.98 68.58 102.78 67.21 96.12 40.07 101.3 34.85"/><path class="cls-4" d="M371.94,273.15c-18.9,14.33-26.18,31.76-27.69,55.41l2.81-8.75c6.55-21.67,17.39-37.4,37.87-48.71Z" transform="translate(-262.64 -252.99)"/><path class="cls-5" d="M277.62,291.15a43.41,43.41,0,0,1,14.11-18.5A48.43,48.43,0,0,1,315,263.72c5.69-.65,10.87.76,16.23,2.23a20.91,20.91,0,0,1,9.33,5.33c1.69-8-19.69-15.26-25.27-18.29,5.36,3.89,13.1,7,18.39,11.45-2.48-.86-4.57-2.16-6.8-3A30.21,30.21,0,0,0,314,259.26c-5,.25-10.4.83-15.37,2.91C286.94,267.07,277.29,277.44,277.62,291.15Z" transform="translate(-262.64 -252.99)"/><path class="cls-3" d="M297.38,331.47a43.3,43.3,0,0,1-17.17-15.66,48.1,48.1,0,0,1-6.88-23.94c-.18-5.72,1.69-10.76,3.6-15.94a21.11,21.11,0,0,1,6.16-8.86c-7.81-2.41-16.92,18.29-20.45,23.58,4.36-5,8.17-12.46,13-17.28-1.05,2.38-2.56,4.32-3.6,6.48a30.52,30.52,0,0,0-3.24,12.56c-.18,5.08-.08,10.48,1.54,15.59C274.2,320.06,283.7,330.57,297.38,331.47Z" transform="translate(-262.64 -252.99)"/><path class="cls-2" d="M340.29,325.32a43.48,43.48,0,0,1-19.37,12.81,48.33,48.33,0,0,1-24.91.8c-5.58-1.23-10-4.25-14.58-7.38a21.1,21.1,0,0,1-7.05-8.14c-4.25,7,13.57,20.88,17.85,25.6-3.81-5.44-10.08-11-13.61-16.85,2.06,1.62,3.6,3.53,5.44,5.07a30.18,30.18,0,0,0,11.38,6.23c4.86,1.41,10.11,2.63,15.48,2.31C323.59,345,336.08,338.35,340.29,325.32Z" transform="translate(-262.64 -252.99)"/><path class="cls-6" d="M397.71,335v-.54l0,0a2.69,2.69,0,0,0,.61-.94,1.62,1.62,0,0,1-.58-.86s0,.07-.07.1v-.79a.6.6,0,0,1,.25-.25.59.59,0,0,1,.36-.14c.15,0,.29.1.47.36a.86.86,0,0,1,.25.54,4.33,4.33,0,0,1-.14,1.18,2.19,2.19,0,0,1-.83,1.12,3.74,3.74,0,0,0-.36.25Zm2.85-.11-.47.26c-.07.07-.11.1-.18.1a.13.13,0,0,1-.11,0,.46.46,0,0,1-.32-.18c-.15-.14-.22-.25-.22-.36a7.27,7.27,0,0,1,.36-1.4,4.07,4.07,0,0,1,.54-1.3,1.55,1.55,0,0,1,.36-.22,1.82,1.82,0,0,1,.36-.18c.07,0,.14.08.22.22s.07.18.14.32c-.29.65-.54,1.26-.79,1.88,0,.07,0,.14.11.14s.28-.22.5-.58l.65-1.08c.29-.39.5-.57.72-.57.07,0,.14.07.21.18a1.61,1.61,0,0,1,.08.32,4.56,4.56,0,0,1-.08.65,5.94,5.94,0,0,0-.18,1.12.75.75,0,0,0,0,.25.57.57,0,0,1,0,.21,1,1,0,0,1-.33.4.83.83,0,0,1-.43.22c-.07,0-.14-.08-.22-.15s-.14-.18-.14-.25a4.07,4.07,0,0,1,.07-.61c0-.22,0-.4.07-.61a7.5,7.5,0,0,1-.46.61,4.46,4.46,0,0,1-.54.57Zm2.91-2a.51.51,0,0,1-.21,0,.19.19,0,0,1-.08-.15c0-.14.11-.25.29-.36l.47-.1a.52.52,0,0,0,.18-.08.27.27,0,0,1,.22-.07.19.19,0,0,1,.18.15,1.27,1.27,0,0,1,0,.36,1.66,1.66,0,0,1-.07.54c0,.21-.07.36-.07.39l0,0s.08-.07.15-.18a4.09,4.09,0,0,0,.32-.51c0-.07,0-.1,0-.18a.39.39,0,0,1,0-.21A1.12,1.12,0,0,1,405,332c0-.11.18-.22.36-.33s.14-.1.21-.1a.33.33,0,0,1,.18-.11c.08,0,.15.07.26.21a.86.86,0,0,1,.1.36.89.89,0,0,1-.1.26.91.91,0,0,0-.15.39.33.33,0,0,0,.11.22.57.57,0,0,1,.11.39c0,.08-.07.15-.22.22a.82.82,0,0,1-.36.11.31.31,0,0,1-.14-.07c0-.08-.11-.15-.15-.22-.28.5-.5.9-.64,1.19-.33.5-.65.79-1,.79-.07,0-.18-.07-.32-.25s-.22-.25-.22-.33a2.74,2.74,0,0,0,.22-.25,2.19,2.19,0,0,0,.29-.43,1.28,1.28,0,0,0,.07-.36,1.11,1.11,0,0,0,0-.36v-.4Zm-5.76-1v.79a3.77,3.77,0,0,0-.39.76,2.06,2.06,0,0,0-.26.86c0,.08,0,.15,0,.22s.07.11.14.11a.74.74,0,0,0,.47-.22V335a2.14,2.14,0,0,1-1,.29.71.71,0,0,1-.54-.18.53.53,0,0,1-.29-.5A2.29,2.29,0,0,1,396,334a4.85,4.85,0,0,1,.22-.58,6.46,6.46,0,0,1,.65-.79,2,2,0,0,1,.83-.61l0,0Zm-5.9,4.65v-.87a.55.55,0,0,1,.14-.18,6.9,6.9,0,0,0,.83-1.19l.22-.46a12.34,12.34,0,0,0-1.19.72V334a13.39,13.39,0,0,1,1.51-.9c.11-.36.22-.68.32-1s.18-.69.29-1c-.5.54-1,1.11-1.65,1.65a5.29,5.29,0,0,1-.47.4v-.76c.57-.57,1.11-1.15,1.69-1.76a4.69,4.69,0,0,1,2-1.44l.14.18a7.23,7.23,0,0,1-.25,1c-.14.4-.32.87-.5,1.37-.25.72-.4,1.08-.4,1.15a1.66,1.66,0,0,0,.43-.14,1.66,1.66,0,0,1,.47-.07c.15,0,.22.07.22.25V333s0,.07-.07.11a5.29,5.29,0,0,1-.58.21,4.32,4.32,0,0,1-.68.18,7.71,7.71,0,0,1-1.66,2.45,7,7,0,0,1-.79.69Zm0-6.88a1.83,1.83,0,0,0,.14-.29l-.11-.21h0Zm0-.5v.5a6.8,6.8,0,0,1-.79,1c-.69.87-1.12,1.37-1.26,1.55a4.66,4.66,0,0,0-.83,1.8l.14.18A3.76,3.76,0,0,0,391.2,333l.61-.65v.76a11,11,0,0,1-1.69,1.26,4.23,4.23,0,0,1-2.06.76.43.43,0,0,1-.36-.15.64.64,0,0,1-.1-.39,3,3,0,0,1,.54-1.48c.07-.11.43-.61,1.11-1.51a5.19,5.19,0,0,0,.79-1.44.33.33,0,0,1-.1-.18,1.84,1.84,0,0,1,.82-.54,3.22,3.22,0,0,1,.94-.29l.11,0Zm0,4.82,0,0a5.33,5.33,0,0,0-1.37,1.29,2.87,2.87,0,0,0-.57,1.62c0,.07,0,.11.11.15s.1.07.14.07a3.11,3.11,0,0,0,1.73-.61v-.87c-.4.43-.72.69-.9.69a.49.49,0,0,1-.22-.08s-.07-.07-.07-.1a.26.26,0,0,1,0-.15,1.34,1.34,0,0,1,.07-.18,3.69,3.69,0,0,1,1-1.19l.11-.1V334Zm-9.36,1v-.54s0,0,.07,0a2.65,2.65,0,0,0,.58-.94,1.62,1.62,0,0,1-.58-.86s0,.07-.07.1v-.79a.75.75,0,0,1,.25-.25.58.58,0,0,1,.4-.14c.1,0,.25.1.43.36a1,1,0,0,1,.29.54,6.8,6.8,0,0,1-.15,1.18,2.55,2.55,0,0,1-.86,1.12A3.74,3.74,0,0,1,382.45,335Zm0-3.06v.79a8.13,8.13,0,0,0-.4.76,2.56,2.56,0,0,0-.21.86.53.53,0,0,0,0,.22.1.1,0,0,0,.11.11.7.7,0,0,0,.47-.22V335a2,2,0,0,1-.94.29.86.86,0,0,1-.57-.18.62.62,0,0,1-.29-.5,4.39,4.39,0,0,1,.07-.65,2.84,2.84,0,0,1,.22-.58,4.35,4.35,0,0,1,.68-.79,2,2,0,0,1,.83-.61v0Zm-15.66,3.42v-.54H367a.84.84,0,0,0,.25,0,3.73,3.73,0,0,0,.4-.15l.14.07,0,.11c0,.15-.18.29-.51.4a3.23,3.23,0,0,1-.5.14Zm0-1.11v-.65c0-.07.11-.11.14-.18a1.54,1.54,0,0,0,.43-.79c0-.11,0-.18-.14-.18a.55.55,0,0,0-.43.25v-.79a1.74,1.74,0,0,1,.72-.18.5.5,0,0,1,.36.18.76.76,0,0,1,.11.43v.36a.91.91,0,0,1-.15.21c-.11.22-.18.44-.29.65a2.38,2.38,0,0,1-.61.58,1.34,1.34,0,0,0-.14.11Zm10.19.86v.11s0,.07.07.11a.78.78,0,0,0,.14,0s.07,0,.11.07a4,4,0,0,0,1.91-.72,5.5,5.5,0,0,1,1-.61l.11,0,0,.11a1.9,1.9,0,0,1-1,.93,11.16,11.16,0,0,1-1.76.83,6.41,6.41,0,0,1-1.44.4l-.11,0a1.62,1.62,0,0,1-.18-.32.62.62,0,0,1-.11-.33,6.32,6.32,0,0,1,.33-1.94,12.2,12.2,0,0,1,.83-1.95c.25-.46.57-1.08,1-1.76-.29,0-.76,0-1.37,0a11.54,11.54,0,0,0-1.4-.07,6.08,6.08,0,0,0-1.73.25c-.83.26-1.26.54-1.26.94a.67.67,0,0,0,.29.54l.64.32s0,.08,0,.15a.25.25,0,0,1,0,.14.43.43,0,0,1,0,.22l-.11.21-.32.15a.86.86,0,0,1-.83-.51,1.81,1.81,0,0,1-.29-1,.93.93,0,0,1,.29-.69s.14-.14.32-.29a8.11,8.11,0,0,1,1.62-1.08,4.8,4.8,0,0,1,1.91-.32c.51,0,1,0,1.48,0s1,0,1.55.07,1,0,1.36,0c0,0,.08,0,.08,0s.07,0,.07,0l.11.18a1.85,1.85,0,0,1-.47.75h-1.08a14.65,14.65,0,0,0-1.26,2.38A7.63,7.63,0,0,0,377,335.11Zm-10.19-3.2v.79a1.4,1.4,0,0,0-.22.25,1.44,1.44,0,0,0-.36.83c0,.11,0,.14.11.14s.25-.11.47-.32v.65a1.73,1.73,0,0,1-.54.21.86.86,0,0,0,.54.36v.54h-.4a2.2,2.2,0,0,0-.39-.14l-.76-.22c-.22-.11-.32-.32-.32-.68a2.52,2.52,0,0,1,.9-1.69,3.09,3.09,0,0,1,1-.72Zm-10.66,2.59V334a2.47,2.47,0,0,1,.11-.43,4.06,4.06,0,0,1,.32-.68.35.35,0,0,1-.07-.25c0-.11.15-.26.47-.4a1.63,1.63,0,0,1,.65-.25.16.16,0,0,1,.14.07.41.41,0,0,1,0,.22,8.35,8.35,0,0,0-.43,1,2.05,2.05,0,0,0-.22.83.62.62,0,0,0,.07.36.39.39,0,0,0,.29.14.67.67,0,0,0,.4-.14.55.55,0,0,0,.18-.33,4.14,4.14,0,0,0-.08-.54,4.45,4.45,0,0,1-.07-.54,1.49,1.49,0,0,1,.18-.79,1.18,1.18,0,0,1,.65-.43.21.21,0,0,1,.22.11c0,.21.07.32.07.36a1.12,1.12,0,0,1,0,.32v.29a2,2,0,0,1-.07.72.64.64,0,0,1-.36.47,2.07,2.07,0,0,1-.5.68,2,2,0,0,1-.83.43.77.77,0,0,1-.29.07.64.64,0,0,1-.25,0,.62.62,0,0,1-.5-.32,2.32,2.32,0,0,1-.15-.47Zm0-2.41v0Zm4-.62c0-.07,0-.1.08-.14a.21.21,0,0,1,.07-.14l.14-.22a1.08,1.08,0,0,1,.33-.18,1.39,1.39,0,0,1,.39-.11c.18,0,.25.11.25.29a.45.45,0,0,1,0,.18s0,.11-.07.14a1.43,1.43,0,0,1-.11.26,1.19,1.19,0,0,1-.25.07,2.3,2.3,0,0,0-.36.07c-.08,0-.18,0-.22,0s-.11,0-.14-.11a.28.28,0,0,1-.08-.15Zm1,.69a3.8,3.8,0,0,1-.36.86,2.84,2.84,0,0,0-.4,1.15.35.35,0,0,0,.07.22s.07.07.15.07a.54.54,0,0,0,.32-.14,1.1,1.1,0,0,1,.25-.11c.11,0,.18,0,.18.14s-.14.33-.39.47a1.69,1.69,0,0,1-.62.25.85.85,0,0,1-.28.11.62.62,0,0,1-.29.11.57.57,0,0,1-.4-.18.6.6,0,0,1-.14-.43.61.61,0,0,1,0-.25.79.79,0,0,1,.08-.29l.57-1.48a1.06,1.06,0,0,1,.18-.32.51.51,0,0,1,.25-.15,2.51,2.51,0,0,0,.4-.18s0,0,.11-.07a.31.31,0,0,1,.11,0,.17.17,0,0,1,.14.07s0,.11,0,.18Zm3.56.11a.56.56,0,0,1-.07.32.37.37,0,0,1-.29.11h-.22c-.25,0-.54.21-.86.68a2.32,2.32,0,0,0-.5,1.08c0,.11,0,.15.1.15a1.9,1.9,0,0,0,.87-.29c.29-.18.57-.4.86-.61.07,0,.07,0,.07.14,0,.29-.21.61-.68,1a2.15,2.15,0,0,1-1.15.47,3.8,3.8,0,0,1-.76-.07.58.58,0,0,1-.47-.58,2.22,2.22,0,0,1,.44-1.19,3,3,0,0,1,.86-1,5.1,5.1,0,0,1,.61-.39,1.42,1.42,0,0,1,.65-.26.72.72,0,0,1,.36.11A.5.5,0,0,1,364.7,332.27Zm-8.57-.4v.22a.82.82,0,0,0-.11.18.9.9,0,0,0-.1.39.32.32,0,0,0,.1.22.52.52,0,0,1,.11.39c0,.08-.07.15-.21.22a1.28,1.28,0,0,1-.36.11c-.08,0-.11,0-.18-.07l-.11-.22c-.29.5-.51.9-.69,1.19-.32.5-.64.79-.93.79-.11,0-.22-.07-.36-.25a.47.47,0,0,1-.18-.33.92.92,0,0,1,.21-.25,3.94,3.94,0,0,0,.29-.43,2.88,2.88,0,0,0,.07-.36c0-.11,0-.25,0-.36l0-.4h-.14a.32.32,0,0,1-.18,0c-.07,0-.11-.07-.11-.15s.11-.25.33-.36l.46-.1s.08,0,.18-.08a.21.21,0,0,1,.18-.07c.11,0,.18,0,.18.15a.91.91,0,0,1,.08.36,3.52,3.52,0,0,1-.08.54c0,.21-.07.36-.07.39l0,0a1.16,1.16,0,0,0,.14-.18,2.61,2.61,0,0,1,.33-.51c0-.07-.08-.1-.08-.18v-.21A1,1,0,0,1,355,332a1.07,1.07,0,0,1,.36-.33c.1,0,.18-.1.21-.1a1,1,0,0,1,.18-.11c.11,0,.18.07.25.21l.11.22Zm0,2.12a1,1,0,0,0,0,.29.56.56,0,0,0,0,.22V334Zm-4.53,11.88v0Zm0-1.76v-.32h0l0,.14a.38.38,0,0,1,0,.18Zm0-1.44v-.47a.77.77,0,0,1,.07.29s0,.07-.07.14v0Zm0-7.31v-.54h.18a.84.84,0,0,0,.25,0,3,3,0,0,0,.39-.15l.15.07,0,.11c0,.15-.18.29-.5.4a3.23,3.23,0,0,1-.5.14Zm0-1.11v-.65c0-.07.1-.11.14-.18a1.54,1.54,0,0,0,.43-.79c0-.11,0-.18-.14-.18a.54.54,0,0,0-.43.25v-.79a1.7,1.7,0,0,1,.72-.18.5.5,0,0,1,.36.18.76.76,0,0,1,.1.43,1.34,1.34,0,0,1,0,.36.31.31,0,0,1-.11.21,5.21,5.21,0,0,0-.29.65,2.38,2.38,0,0,1-.61.58A.76.76,0,0,0,351.6,334.25Zm-8.61.64a1.51,1.51,0,0,1-.32.4,2.88,2.88,0,0,1-.25.25l.07,0a15.25,15.25,0,0,0,1.83-.33,23,23,0,0,0,2.6-.64c.9-.29,1.33-.62,1.33-.9s-.22-.36-.65-.44a5.84,5.84,0,0,0-1.26-.1h-.94a2.38,2.38,0,0,1-1-.15,3.84,3.84,0,0,0-.58-.47l-.5-.1a.33.33,0,0,1-.26-.36c0-.51.36-1,1.16-1.55a11.23,11.23,0,0,1,2.48-1.15,7.3,7.3,0,0,1,2.12-.44.41.41,0,0,1,.22,0,1.06,1.06,0,0,1,.22.07l.18.29a1.94,1.94,0,0,1-.44.68,1.68,1.68,0,0,1-.54.54.26.26,0,0,1-.18-.14.41.41,0,0,1,0-.22l-.18-.14a6.39,6.39,0,0,0-1.37.22,11.35,11.35,0,0,0-1.87.54c-.61.28-.94.54-.94.82s.15.26.4.33a9.12,9.12,0,0,0,1,.07H346a2.84,2.84,0,0,1,.54,0,10,10,0,0,1,1.73.11c.75.18,1.11.54,1.11,1.05a1.11,1.11,0,0,1-.43.86,7.62,7.62,0,0,1-.83.58c-.32.25-.68.46-1,.72a15.24,15.24,0,0,1-3,1,13.08,13.08,0,0,1-3.09.47.36.36,0,0,1-.18,0,.73.73,0,0,1-.15-.11,5.16,5.16,0,0,1,1.08-1.08,4.08,4.08,0,0,1,1.15-.79l.11.1Zm8.61-3v.79a1.09,1.09,0,0,0-.22.25,1.55,1.55,0,0,0-.4.83c0,.11,0,.14.11.14s.29-.11.51-.32v.65a1.61,1.61,0,0,1-.58.21,1.07,1.07,0,0,0,.58.36v.54h-.4a2.47,2.47,0,0,0-.4-.14c-.25-.07-.5-.15-.79-.22a.72.72,0,0,1-.29-.68,2.4,2.4,0,0,1,.9-1.69,3.23,3.23,0,0,1,1-.72Zm0,10.22v.54a.61.61,0,0,0-.11.18l-.47.86h.32a.65.65,0,0,1,.26.08v.32a1.59,1.59,0,0,1-.18.22.75.75,0,0,1-.4.18h-.4l-.25.54a1.85,1.85,0,0,0,0,.39.3.3,0,0,0,.07.25.38.38,0,0,0,.29.11.85.85,0,0,0,.39-.07l.36-.11.11.07,0,0v.14a1.24,1.24,0,0,1-.65.54,2,2,0,0,1-.87.22.82.82,0,0,1-.64-.32,1.1,1.1,0,0,1-.22-.69,1.92,1.92,0,0,1,.14-.57c.08-.18.15-.36.26-.58h-.18a.19.19,0,0,1-.18-.11.73.73,0,0,1,.28-.32,1.76,1.76,0,0,0,.4-.29s0-.07.07-.11a.16.16,0,0,1,0-.11c.11-.21.21-.39.29-.57a1.85,1.85,0,0,1,.39-.65s.07,0,.18-.07a.63.63,0,0,0,.22-.07c.07,0,.11-.08.14-.08s.11,0,.18,0a.26.26,0,0,1,.15.07Zm-9.29-.61c0-.36.25-.65.68-.9a2.17,2.17,0,0,1,1.15-.36.65.65,0,0,1,.62.29,2.42,2.42,0,0,1,.21.75l0,.11-.11,0c-.11,0-.36-.15-.72-.33a2,2,0,0,0-.47-.21s-.07,0-.11.07a.14.14,0,0,0,0,.11,2.26,2.26,0,0,0,.57,1.15,3.84,3.84,0,0,1,.58.9c0,.21-.15.36-.43.43s-.44.11-.65.14a3.65,3.65,0,0,0-.47-.1,1.63,1.63,0,0,0-.43-.08,1.76,1.76,0,0,0-1,.26.8.8,0,0,0-.51.75c0,.47.29.83.87,1.12a3.36,3.36,0,0,0,1.51.39,3.46,3.46,0,0,0,.75-.14,2.75,2.75,0,0,1,.44-.14l.14,0,0,.11c-.11.25-.54.43-1.23.61a7.62,7.62,0,0,1-1.44.18,2.71,2.71,0,0,1-1.55-.43,1.61,1.61,0,0,1-.72-1.37,1.66,1.66,0,0,1,1.12-1.44,5.92,5.92,0,0,1,1.94-.5c-.25-.33-.39-.54-.5-.69a1.88,1.88,0,0,1-.25-.75Zm6.08,1.69a.35.35,0,0,1,.33.22,1,1,0,0,1,.07.39,4.52,4.52,0,0,1-.18,1,4,4,0,0,0-.18.94l.07.14a.41.41,0,0,1,.11.18c0,.08-.15.22-.4.36a1.62,1.62,0,0,1-.57.22c-.15,0-.22-.07-.26-.22a2.44,2.44,0,0,1-.07-.46,2.52,2.52,0,0,1,.11-.65,5.39,5.39,0,0,0,.36-1.05l0,0a4.12,4.12,0,0,0-.57.68c-.36.51-.72,1-1.08,1.48a3.26,3.26,0,0,1-.54.25.85.85,0,0,0-.18-.14.41.41,0,0,1-.11-.18,11.33,11.33,0,0,1,.36-1.41,8.75,8.75,0,0,1,.5-1.4s.11-.07.29-.15a2.26,2.26,0,0,1,.29-.14c.07,0,.14,0,.22,0a.75.75,0,0,0,.18.14s0,.11,0,.14a1,1,0,0,1-.14.4c-.15.25-.22.4-.22.4l-.29.75c.26-.36.54-.68.8-1C347.78,343.5,348.14,343.21,348.39,343.21Z" transform="translate(-262.64 -252.99)"/><path class="cls-6" d="M402.28,346.34v-.54s0,0,0,0a2.65,2.65,0,0,0,.58-.94,1.81,1.81,0,0,1-.58-.86s0,.07,0,.1v-.79a.48.48,0,0,1,.22-.25.65.65,0,0,1,.4-.14c.1,0,.25.1.43.36a1,1,0,0,1,.29.54,4.34,4.34,0,0,1-.15,1.18,2.34,2.34,0,0,1-.86,1.12c-.11.07-.22.18-.33.25Zm4.68-3.13a.34.34,0,0,1,.33.22c.07.07.07.21.07.39a3.18,3.18,0,0,1-.18,1,4,4,0,0,0-.18.94.75.75,0,0,0,.11.14,1.2,1.2,0,0,1,.07.18c0,.08-.14.22-.4.36a1.34,1.34,0,0,1-.57.22.25.25,0,0,1-.25-.22,1.85,1.85,0,0,1-.08-.46,1.62,1.62,0,0,1,.15-.65,7.37,7.37,0,0,0,.32-1.05l0,0a2.71,2.71,0,0,0-.54.68c-.36.51-.76,1-1.12,1.48a3.26,3.26,0,0,1-.54.25l-.14-.14c-.11-.08-.15-.15-.15-.18a13.77,13.77,0,0,1,.36-1.41,7.39,7.39,0,0,1,.51-1.4s.1-.07.28-.15a2.26,2.26,0,0,1,.29-.14c.07,0,.15,0,.22,0a1,1,0,0,0,.18.14s0,.11,0,.14a1,1,0,0,1-.14.4l-.22.4-.28.75c.25-.36.54-.68.79-1C406.35,343.5,406.71,343.21,407,343.21Zm-4.68.07v.79a4.18,4.18,0,0,0-.43.76,2.56,2.56,0,0,0-.21.86.53.53,0,0,0,0,.22.12.12,0,0,0,.11.11.75.75,0,0,0,.5-.22v.54a2.25,2.25,0,0,1-1,.29.86.86,0,0,1-.57-.18.62.62,0,0,1-.29-.5,2.15,2.15,0,0,1,.11-.65,1.59,1.59,0,0,1,.18-.58,6.83,6.83,0,0,1,.68-.79,2,2,0,0,1,.83-.61s0,0,0,0ZM390,345.8v-.54a1.4,1.4,0,0,0,.22-.25,2.58,2.58,0,0,0,.79-1.22s0-.08-.07-.08c-.22,0-.54.22-.94.62v-.83a1.84,1.84,0,0,1,1-.29,2.62,2.62,0,0,1,.51.07c.25.11.36.22.36.36a5.52,5.52,0,0,1-.29,1.15,4.16,4.16,0,0,0-.29,1.37.43.43,0,0,0,0,.22c0,.11,0,.18.07.21s-.07.11-.11.18a.21.21,0,0,1-.18.08h-.29a.55.55,0,0,0-.21,0c-.15,0-.22-.07-.25-.29a2.88,2.88,0,0,1-.08-.65v-.18a.26.26,0,0,1,0-.18,2,2,0,0,1-.29.29Zm5.15-2.19a.56.56,0,0,1-.07.32.34.34,0,0,1-.25.11h-.26c-.25,0-.54.21-.86.68a2.32,2.32,0,0,0-.5,1.08c0,.11,0,.15.1.15a1.9,1.9,0,0,0,.87-.29c.29-.18.57-.4.86-.61.07,0,.07,0,.07.14,0,.29-.21.61-.68,1a2.15,2.15,0,0,1-1.15.47,3.8,3.8,0,0,1-.76-.07A.58.58,0,0,1,392,346a2.22,2.22,0,0,1,.44-1.19,3,3,0,0,1,.86-1,5.1,5.1,0,0,1,.61-.39,1.77,1.77,0,0,1,.65-.26.64.64,0,0,1,.36.11.5.5,0,0,1,.18.33Zm1.48,1.83a.32.32,0,0,0,.1.25.35.35,0,0,0,.29.11.72.72,0,0,0,.36-.07l.36-.11.11.07.07.11a1.34,1.34,0,0,1-.65.61,2.09,2.09,0,0,1-.9.22.82.82,0,0,1-.64-.32,1.1,1.1,0,0,1-.22-.69,1.92,1.92,0,0,1,.14-.57c.08-.18.18-.36.26-.58h-.18c-.08,0-.15,0-.15-.11s.11-.21.29-.32a2.32,2.32,0,0,0,.36-.29s0-.07.07-.11a.25.25,0,0,0,0-.11c.11-.21.21-.39.29-.57a1.85,1.85,0,0,1,.39-.65s.07,0,.18-.07a.63.63,0,0,0,.22-.07l.14-.08c.07,0,.11,0,.18,0a.17.17,0,0,1,.18.14c0,.07,0,.18,0,.29s0,.07-.07.14l-.11.22-.43.86h.28a.53.53,0,0,1,.26.08l0,.14a.77.77,0,0,1-.18.4.83.83,0,0,1-.39.18h-.44a2.55,2.55,0,0,0-.21.54.83.83,0,0,0-.07.39Zm2.44-2.63c0-.07,0-.1,0-.14a.27.27,0,0,1,.07-.14l.15-.22a.88.88,0,0,1,.32-.18,1.28,1.28,0,0,1,.43-.11c.15,0,.22.11.22.29a.35.35,0,0,1,0,.18.25.25,0,0,0,0,.14c-.08.11-.11.22-.15.26s-.11,0-.25.07a1.94,1.94,0,0,0-.32.07,2.08,2.08,0,0,0-.26,0c-.07,0-.1,0-.14-.11a.21.21,0,0,1,0-.15Zm.94.69a3.8,3.8,0,0,1-.36.86,2.79,2.79,0,0,0-.36,1.15c0,.11,0,.18,0,.22a.16.16,0,0,0,.14.07.41.41,0,0,0,.32-.14,1.25,1.25,0,0,1,.29-.11.14.14,0,0,1,.15.14c0,.18-.15.33-.4.47a1.71,1.71,0,0,1-.61.25.74.74,0,0,1-.25.11,1,1,0,0,1-.33.11.55.55,0,0,1-.39-.18.8.8,0,0,1-.15-.43.47.47,0,0,1,0-.25.77.77,0,0,1,.07-.29l.61-1.48a.61.61,0,0,1,.15-.32c0-.07.14-.11.28-.15s.26-.1.36-.18,0,0,.11-.07a.31.31,0,0,1,.11,0c.07,0,.14,0,.14.07S400,343.43,400,343.5Zm-10,0v.83a1.38,1.38,0,0,0-.21.25,2.23,2.23,0,0,0-.8,1.26.09.09,0,0,0,.08.07c.21,0,.5-.22.93-.65v.54a1.88,1.88,0,0,1-.68.51,2.53,2.53,0,0,1-1.19.32c-.14,0-.22-.07-.29-.22a1,1,0,0,1-.11-.43c0-.47.44-1,1.23-1.76a6.36,6.36,0,0,1,1-.72Zm-4.21,4.82v-.65a1.76,1.76,0,0,0,.43-.46,1.9,1.9,0,0,0,.43-1,1,1,0,0,0-.36-.79,1.18,1.18,0,0,0-.5-.29v-.79a3.86,3.86,0,0,1,1.12.32,1.18,1.18,0,0,1,.61,1,3.65,3.65,0,0,1-1.05,1.95,4.73,4.73,0,0,1-.68.75Zm0-4.07v-2.19a6.89,6.89,0,0,1,.61-1.08c.36-.47.69-.72,1.05-.72a.17.17,0,0,1,.14.07s0,.07,0,.14V341a.28.28,0,0,1,0,.18c0,.08-.07.15-.14.22l-.18.14a6,6,0,0,0-.62.94c-.25.47-.43.83-.57,1.08l1.22-.22a.1.1,0,0,1,.07,0s.08,0,.11,0l.11.14a.72.72,0,0,1-.47.58,3,3,0,0,1-.9.1h-.43Zm0-2.19v2.19h-.07l.07,0v.79c-.11,0-.18-.07-.29-.11-.18.58-.32.9-.36,1a4.13,4.13,0,0,0-.21,1.08,1,1,0,0,0,.1.47c.08.18.18.25.33.25a.68.68,0,0,0,.43-.15v.65a1.69,1.69,0,0,1-.94.51.71.71,0,0,1-.54-.22,2.09,2.09,0,0,1-.18-1v-.36a4.58,4.58,0,0,1,.22-1.26c0-.15.18-.58.4-1.26l-.33-.11c-.18-.07-.25-.11-.25-.18a.67.67,0,0,1,.32-.58,1.58,1.58,0,0,1,.65-.18c.15-.43.33-.86.47-1.26.07-.14.11-.25.18-.39Zm-4.61,4.17v0a.83.83,0,0,1,.22-.51.6.6,0,0,1,.43-.28c.11,0,.25.1.36.32s.22.32.32.32.11-.07.11-.14a1.73,1.73,0,0,0-.32-1,2.45,2.45,0,0,1-.29-.61c0-.22.18-.5.58-.86a1.88,1.88,0,0,1,1-.51.78.78,0,0,1,.25.07.2.2,0,0,1,.14.22c0,.18,0,.32,0,.43s-.18.29-.33.29a.39.39,0,0,1-.21,0,.55.55,0,0,1-.18-.14.44.44,0,0,0-.07.22,5.24,5.24,0,0,1,.43.72,1.4,1.4,0,0,1,.18.61,1.27,1.27,0,0,1-.61,1,2.2,2.2,0,0,1-1.16.32,2.41,2.41,0,0,1-.5-.07c-.18-.07-.29-.18-.29-.33Zm0-3.92v0Zm0,0v0h0a.46.46,0,0,1-.07.18s0,.11,0,.14-.1.22-.14.26a1.19,1.19,0,0,1-.25.07c-.11,0-.22,0-.33.07s-.18,0-.25,0-.11,0-.14-.11a.21.21,0,0,1,0-.15c0-.07,0-.1,0-.14a.76.76,0,0,1,.11-.14l.1-.22a1.08,1.08,0,0,1,.33-.18,1.48,1.48,0,0,1,.43-.11.25.25,0,0,1,.25.25Zm0,3.93v0Zm-7-.4v-.54a1.38,1.38,0,0,0,.21-.25,2.93,2.93,0,0,0,.8-1.22s0-.08-.11-.08-.51.22-.9.62v-.83a1.79,1.79,0,0,1,.93-.29,3.33,3.33,0,0,1,.54.07c.22.11.36.22.36.36a4.12,4.12,0,0,1-.32,1.15,5.58,5.58,0,0,0-.29,1.37.63.63,0,0,0,.07.22.94.94,0,0,0,0,.21c0,.08,0,.11-.11.18s-.11.08-.18.08H375a.75.75,0,0,0-.25,0c-.11,0-.18-.07-.22-.29a1.83,1.83,0,0,1-.07-.65v-.36a1.87,1.87,0,0,1-.25.29Zm3.27-.36a.33.33,0,0,0,.11.25.38.38,0,0,0,.29.11.72.72,0,0,0,.36-.07l.36-.11.11.07.07.11c-.07.25-.29.43-.65.61a2.09,2.09,0,0,1-.9.22.71.71,0,0,1-.61-.32,1,1,0,0,1-.25-.69,1.64,1.64,0,0,1,.14-.57,2.54,2.54,0,0,0,.25-.58h-.18c-.07,0-.1,0-.14-.11a.6.6,0,0,1,.29-.32,3,3,0,0,0,.36-.29s.07-.07.07-.11,0-.11.07-.11c.07-.21.18-.39.25-.57a2.75,2.75,0,0,1,.4-.65.71.71,0,0,0,.18-.07.35.35,0,0,0,.22-.07l.14-.08c.07,0,.11,0,.18,0a.18.18,0,0,1,.18.14.64.64,0,0,1,0,.29s0,.07-.08.14l-.1.22-.44.86h.33a.46.46,0,0,1,.21.08l.08.14a.67.67,0,0,1-.22.4.82.82,0,0,1-.4.18h-.43a2.1,2.1,0,0,0-.21.54,1.59,1.59,0,0,0-.08.39Zm3.42-1.94a5,5,0,0,1-.39.86,2.79,2.79,0,0,0-.36,1.15.41.41,0,0,0,0,.22.22.22,0,0,0,.18.07.57.57,0,0,0,.33-.14.94.94,0,0,1,.25-.11c.11,0,.14,0,.14.14s-.1.33-.36.47a1.88,1.88,0,0,1-.61.25,1.36,1.36,0,0,1-.29.11.68.68,0,0,1-.32.11.5.5,0,0,1-.36-.18.64.64,0,0,1-.18-.43c0-.11,0-.18,0-.25a.84.84,0,0,1,.1-.29l.58-1.48a1.55,1.55,0,0,1,.14-.32.66.66,0,0,1,.29-.15,2,2,0,0,0,.36-.18s.07,0,.11-.07a.4.4,0,0,1,.14,0,.18.18,0,0,1,.15.07A1.64,1.64,0,0,1,380.86,343.5Zm-6.69,0v.83a1.47,1.47,0,0,0-.25.25,2.27,2.27,0,0,0-.76,1.26s0,.07.07.07.51-.22.94-.65v.54a2,2,0,0,1-.72.51,2.53,2.53,0,0,1-1.19.32.33.33,0,0,1-.29-.22,2,2,0,0,1-.07-.43c0-.47.4-1,1.22-1.76a5.06,5.06,0,0,1,1.05-.72Zm-15.09,3.2v-.54h.18a.86.86,0,0,0,.26,0,3,3,0,0,0,.39-.15l.15.07,0,.11c0,.15-.18.29-.5.4a4.6,4.6,0,0,1-.51.14Zm0-1.11v-.65a.8.8,0,0,1,.15-.18,1.54,1.54,0,0,0,.43-.79c0-.11,0-.18-.14-.18a.57.57,0,0,0-.44.25v-.79a1.63,1.63,0,0,1,.72-.18.47.47,0,0,1,.36.18.69.69,0,0,1,.11.43,1.34,1.34,0,0,1,0,.36.31.31,0,0,1-.11.21,5.21,5.21,0,0,0-.29.65,2.55,2.55,0,0,1-.61.58,1.43,1.43,0,0,0-.15.11Zm6.2.64c0,.08-.11.22-.29.4a3.1,3.1,0,0,1-.29.25l.11,0a16.54,16.54,0,0,0,1.8-.33,26.21,26.21,0,0,0,2.63-.64c.86-.29,1.29-.62,1.29-.9s-.18-.36-.61-.44a6,6,0,0,0-1.26-.1h-.94a2.3,2.3,0,0,1-1-.15c-.22-.18-.4-.32-.62-.47l-.46-.1a.32.32,0,0,1-.29-.36c0-.51.39-1,1.19-1.55a10.09,10.09,0,0,1,2.44-1.15,7.55,7.55,0,0,1,2.13-.44.39.39,0,0,1,.21,0,1.13,1.13,0,0,1,.26.07l.14.29a2.38,2.38,0,0,1-.4.68,2.34,2.34,0,0,1-.57.54.32.32,0,0,1-.18-.14s0-.11,0-.22l-.18-.14a6.77,6.77,0,0,0-1.37.22,12,12,0,0,0-1.87.54c-.61.28-.93.54-.93.82s.14.26.43.33a8.38,8.38,0,0,0,1,.07h.64a2.84,2.84,0,0,1,.54,0,9.9,9.9,0,0,1,1.73.11c.76.18,1.15.54,1.15,1.05a1.11,1.11,0,0,1-.43.86,6.33,6.33,0,0,1-.86.58c-.33.25-.65.46-1,.72a13.91,13.91,0,0,1-3,1,13.35,13.35,0,0,1-3.13.47.45.45,0,0,1-.18,0l-.14-.11a4.5,4.5,0,0,1,1.08-1.08,4.41,4.41,0,0,1,1.15-.79Zm-6.2-3V344a1.38,1.38,0,0,0-.21.25,1.55,1.55,0,0,0-.4.83c0,.11,0,.14.11.14a.92.92,0,0,0,.5-.32v.65a1.63,1.63,0,0,1-.57.21,1.08,1.08,0,0,0,.57.36v.54h-.39l-.4-.14c-.25-.07-.5-.15-.79-.22-.11,0-.18-.18-.25-.32v-.72a3,3,0,0,1,.86-1.33,3.33,3.33,0,0,1,1-.72Zm-1.83,1.44a.15.15,0,0,0,0-.08.51.51,0,0,0,0-.21v.29Zm0-1.23a.58.58,0,0,0,.07-.11c0-.07,0-.1-.07-.21Zm-4.5-.65a.17.17,0,0,1,.07-.14.27.27,0,0,1,.07-.14l.15-.22a.88.88,0,0,1,.32-.18,1.35,1.35,0,0,1,.4-.11c.18,0,.25.11.25.29a.35.35,0,0,1,0,.18s0,.11-.07.14a1,1,0,0,1-.11.26s-.11,0-.25.07a2.88,2.88,0,0,0-.36.07c-.07,0-.18,0-.22,0s-.1,0-.14-.11a.26.26,0,0,1-.07-.15Zm4.5.33v.32a.34.34,0,0,1-.07.15.8.8,0,0,0-.11.39.29.29,0,0,0,.11.22.3.3,0,0,1,.07.18v.29s-.07.07-.18.14a.85.85,0,0,1-.36.11.34.34,0,0,1-.15-.07,1.13,1.13,0,0,1-.14-.22c-.29.5-.5.9-.68,1.19-.33.5-.62.79-.94.79a.44.44,0,0,1-.32-.25c-.15-.15-.22-.25-.22-.33a2.74,2.74,0,0,0,.22-.25,1.64,1.64,0,0,0,.28-.43,1,1,0,0,0,.08-.36,1.46,1.46,0,0,0,0-.36v-.4h-.14a.47.47,0,0,1-.22,0,.21.21,0,0,1-.07-.15c0-.14.11-.25.29-.36l.47-.1a.76.76,0,0,0,.18-.08.23.23,0,0,1,.18-.07.19.19,0,0,1,.21.15,1,1,0,0,1,0,.36,5,5,0,0,1-.07.54c0,.21-.08.36-.08.39l0,0s.07-.07.14-.18a2.61,2.61,0,0,1,.33-.51,1,1,0,0,1-.07-.18v-.21a1.81,1.81,0,0,1,.07-.54,1.22,1.22,0,0,1,.39-.33c.08,0,.15-.1.18-.1a.46.46,0,0,1,.22-.11c.07,0,.14.07.22.21s.07.11.07.15Zm0,2.16c0,.11,0,.21,0,.36s0,.25,0,.36v-.72Zm-3.53-1.8a3.8,3.8,0,0,1-.36.86,3,3,0,0,0-.4,1.15.3.3,0,0,0,.08.22s.07.07.14.07a.54.54,0,0,0,.32-.14,1.09,1.09,0,0,1,.26-.11c.1,0,.18,0,.18.14s-.15.33-.4.47a1.71,1.71,0,0,1-.61.25.92.92,0,0,1-.29.11.62.62,0,0,1-.29.11.55.55,0,0,1-.39-.18.61.61,0,0,1-.15-.43.47.47,0,0,1,0-.25.77.77,0,0,1,.07-.29l.61-1.48a.61.61,0,0,1,.15-.32c0-.07.14-.11.25-.15a2.38,2.38,0,0,0,.39-.18s0,0,.11-.07a.31.31,0,0,1,.11,0,.16.16,0,0,1,.14.07S353.72,343.43,353.72,343.5Z" transform="translate(-262.64 -252.99)"/></svg>